Format : AVI
Format/Info : Audio Video Interleave
File size : 1.11 GiB
Duration : 1h 28mn
Overall bit rate : 1 792 Kbps
Writing library : VirtualDub build 32842/release

Video
ID : 0
Format : MPEG-4 Visual
Format profile : Advanced Simple@L5
Format settings, BVOP : 2
Format settings, QPel : No
Format settings, GMC : No warppoints
Format settings, Matrix : Default (H.263)
Muxing mode : Packed bitstream
Codec ID : XVID
Codec ID/Hint : XviD
Duration : 1h 28mn
Bit rate : 1 334 Kbps
Width : 642 pixels
Height : 342 pixels
Display aspect ratio : 1.877
Frame rate : 25.000 fps
Color space : YUV
Chroma subsampling : 4:2:0
Bit depth : 8 bits
Scan type : Progressive
Compression mode : Lossy
Bits/(Pixel*Frame) : 0.243
Stream size : 844 MiB (74%)
Writing library : XviD 64

Audio
ID : 1
Format : AC-3
Format/Info : Audio Coding 3
Mode extension : CM (complete main)
Codec ID : 2000
Duration : 1h 28mn
Bit rate mode : Constant
Bit rate : 448 Kbps
Channel(s) : 2 channels
Channel positions : Front: L R
Sampling rate : 44.1 KHz
Bit depth : 16 bits
Compression mode : Lossy
Delay relative to video : 69ms
Stream size : 283 MiB (25%)
Alignment : Split accross interleaves
Interleave, duration : 40 ms (1.00 video frame)
Interleave, preload duration : 500 ms






 
http://www.imdb.com/title/tt0873886/









Ratings: 6.5/10 from 1,284 users
Reviews: 22 user | 31 critic

Set in Middle America, a group of teens receive an online invitation for sex, though they soon encounter fundamentalists with a much more sinister agenda.
Director:
Kevin Smith
Writer:
Kevin Smith
Stars:
Michael Parks, Melissa Leo and John Goodman


